HIERARCHY
ROOT joint_Root
{
	OFFSET 0.0 0.0 0.0
	CHANNELS 6 Xposition Yposition Zposition Zrotation Xrotation Yrotation 
	JOINT Hips
	{
		OFFSET -17.1583 93.1646 452.98
		CHANNELS 6 Xposition Yposition Zposition Zrotation Xrotation Yrotation 
		JOINT Spine
		{
			OFFSET 15.7357 0.0 0.0
			CHANNELS 6 Xposition Yposition Zposition Zrotation Xrotation Yrotation 
			JOINT Chest
			{
				OFFSET 8.98455 -0.406207 0.0
				CHANNELS 6 Xposition Yposition Zposition Zrotation Xrotation Yrotation 
				JOINT Neck
				{
					OFFSET 16.3773 0.0 0.0
					CHANNELS 6 Xposition Yposition Zposition Zrotation Xrotation Yrotation 
					JOINT Head
					{
						OFFSET 6.45672 0.0 0.0
						CHANNELS 6 Xposition Yposition Zposition Zrotation Xrotation Yrotation 
						End Site
						{
							OFFSET 0.0 0.0 0.0
						}
					}
				}
				JOINT Shoulder_L
				{
					OFFSET 12.9942 -0.242716 4.98039
					CHANNELS 6 Xposition Yposition Zposition Zrotation Xrotation Yrotation 
					JOINT UpperArm_L
					{
						OFFSET 5.34809 0.0 0.0
						CHANNELS 6 Xposition Yposition Zposition Zrotation Xrotation Yrotation 
						JOINT LowerArm_L
						{
							OFFSET 24.3286 1.87007e-05 0.0
							CHANNELS 6 Xposition Yposition Zposition Zrotation Xrotation Yrotation 
							JOINT Hand_L
							{
								OFFSET 22.2916 0.0 0.0
								CHANNELS 6 Xposition Yposition Zposition Zrotation Xrotation Yrotation 
								End Site
								{
									OFFSET 0.0 0.0 0.0
								}
							}
						}
					}
				}
				JOINT Shoulder_R
				{
					OFFSET 12.9945 -0.242716 -4.98039
					CHANNELS 6 Xposition Yposition Zposition Zrotation Xrotation Yrotation 
					JOINT UpperArm_R
					{
						OFFSET -5.34813 0.0 0.0
						CHANNELS 6 Xposition Yposition Zposition Zrotation Xrotation Yrotation 
						JOINT LowerArm_R
						{
							OFFSET -24.3289 0.000322201 0.0
							CHANNELS 6 Xposition Yposition Zposition Zrotation Xrotation Yrotation 
							JOINT Hand_R
							{
								OFFSET -22.2915 -0.000108084 0.0
								CHANNELS 6 Xposition Yposition Zposition Zrotation Xrotation Yrotation 
								End Site
								{
									OFFSET 0.0 0.0 0.0
								}
							}
						}
					}
				}
			}
		}
		JOINT UpperLeg_L
		{
			OFFSET -2.19248 -6.46944 0.0
			CHANNELS 6 Xposition Yposition Zposition Zrotation Xrotation Yrotation 
			JOINT LowerLeg_L
			{
				OFFSET 39.0811 0.0 -1.23785e-05
				CHANNELS 6 Xposition Yposition Zposition Zrotation Xrotation Yrotation 
				JOINT Foot_L
				{
					OFFSET 40.9854 0.0 -1.26872e-05
					CHANNELS 6 Xposition Yposition Zposition Zrotation Xrotation Yrotation 
					JOINT Toes_L
					{
						OFFSET 11.7543 0.0 0.0
						CHANNELS 6 Xposition Yposition Zposition Zrotation Xrotation Yrotation 
						End Site
						{
							OFFSET 0.0 0.0 0.0
						}
					}
				}
			}
		}
		JOINT UpperLeg_R
		{
			OFFSET -2.19251 6.46944 0.0
			CHANNELS 6 Xposition Yposition Zposition Zrotation Xrotation Yrotation 
			JOINT LowerLeg_R
			{
				OFFSET -39.0811 -0.00228153 -0.0401928
				CHANNELS 6 Xposition Yposition Zposition Zrotation Xrotation Yrotation 
				JOINT Foot_R
				{
					OFFSET -40.9854 0.0 0.0
					CHANNELS 6 Xposition Yposition Zposition Zrotation Xrotation Yrotation 
					JOINT Toes_R
					{
						OFFSET -11.7543 0.0 0.0
						CHANNELS 6 Xposition Yposition Zposition Zrotation Xrotation Yrotation 
						End Site
						{
							OFFSET 0.0 0.0 0.0
						}
					}
				}
			}
		}
	}
}
MOTION
Frames:	4
Frame Time:	0.0333333
0.000000 0.000000 0.000000 0.000000 0.000000 -0.000000 -2.730410 89.207400 -2.697070 84.045500 1.229420 1.297590 15.735700 0.000005 -0.000001 55.565800 87.957000 -52.417500 8.984550 -0.406207 -0.000000 -4.317960 -2.640330 6.201720 16.377300 -0.000001 -0.000001 2.929770 2.162040 -2.439720 6.456720 -0.000001 -0.000000 9.089500 3.311190 0.386541 12.994200 -0.242716 4.980390 -92.783000 8.459600 -71.714700 5.348090 -0.000007 -0.000001 -70.654300 -8.633760 7.344420 24.328600 0.000019 0.000005 17.763900 32.132900 -31.060600 22.291600 -0.000001 0.000005 42.535500 4.595190 14.997100 12.994500 -0.242716 -4.980390 88.596200 4.043030 -70.834500 -5.348130 -0.000001 -0.000004 -69.526600 4.427600 2.634690 -24.328900 0.000322 -0.000009 -0.915464 -2.255850 -22.071600 -22.291500 -0.000108 -0.000004 42.043600 5.429780 -3.931500 -2.192480 -6.469440 -0.000000 -170.742000 -2.597320 -14.082600 39.081100 -0.000007 -0.000012 0.228266 -0.096363 67.111700 40.985400 -0.000006 -0.000013 -11.564600 12.901200 -33.092100 11.754300 -0.000000 0.000003 0.002391 0.067340 -13.845600 -2.192510 6.469440 -0.000001 -167.593000 -1.549590 159.439000 -39.081100 -0.002282 -0.040193 0.121725 -0.162324 36.115800 -40.985400 0.000008 0.000006 2.450020 -4.550300 -71.294500 -11.754300 -0.000006 -0.000006 -0.010581 0.275593 -5.375550
0.000000 0.000000 0.000000 0.000000 0.000000 -0.000000 -2.502130 90.020100 1.099560 85.318300 1.089010 2.073190 15.735700 0.000005 -0.000001 70.202600 87.841500 -67.649800 8.984550 -0.406207 -0.000000 -3.661710 -1.715680 5.052970 16.377300 -0.000001 -0.000001 3.161190 1.930290 -1.849890 6.456720 -0.000001 -0.000000 9.134980 2.723550 0.813317 12.994200 -0.242716 4.980390 -92.570900 7.712590 -71.501500 5.348090 -0.000007 -0.000001 -69.860500 -10.146800 8.957550 24.328600 0.000019 0.000005 15.348900 30.823600 -28.176900 22.291600 -0.000001 0.000005 41.996700 4.570020 15.426800 12.994500 -0.242716 -4.980390 88.612200 4.008750 -70.886200 -5.348130 -0.000001 -0.000004 -70.583000 8.067110 0.931892 -24.328900 0.000322 -0.000009 -0.753564 -1.515400 -26.416500 -22.291500 -0.000108 -0.000004 42.167500 5.440930 -4.318100 -2.192480 -6.469440 -0.000000 -172.436000 -2.136260 -18.080700 39.081100 -0.000007 -0.000012 0.200782 -0.078404 68.668300 40.985400 -0.000006 -0.000013 -9.151600 8.974890 -40.590700 11.754300 -0.000000 0.000003 0.002393 0.067476 -13.840000 -2.192510 6.469440 -0.000001 -169.138000 -0.050360 164.257000 -39.081100 -0.002282 -0.040193 0.060557 -0.085472 33.820900 -40.985400 0.000008 0.000006 1.392170 -2.867550 -72.705600 -11.754300 -0.000006 -0.000006 -0.010819 0.277330 -5.304490
0.000000 0.000000 0.000000 0.000000 0.000000 -0.000000 -2.204350 90.958400 4.735360 86.912100 0.791044 2.197640 15.735700 0.000005 -0.000001 79.279900 87.862800 -77.436800 8.984550 -0.406207 -0.000000 -3.548180 -0.976517 3.657180 16.377300 -0.000001 -0.000001 3.595940 1.837780 -1.501420 6.456720 -0.000001 -0.000000 9.408220 2.385830 1.354640 12.994200 -0.242716 4.980390 -92.430700 7.135510 -71.132700 5.348090 -0.000007 -0.000001 -68.063200 -12.147500 11.036900 24.328600 0.000019 0.000005 13.995500 29.432300 -26.895000 22.291600 -0.000001 0.000005 42.069800 4.549400 15.775900 12.994500 -0.242716 -4.980390 88.729800 3.700360 -71.039300 -5.348130 -0.000001 -0.000004 -71.505200 10.933200 -0.751976 -24.328900 0.000322 -0.000009 -0.554788 -0.946531 -30.331300 -22.291500 -0.000108 -0.000004 42.369200 5.445000 -4.461980 -2.192480 -6.469440 -0.000000 -174.707000 -1.687600 -21.587000 39.081100 -0.000007 -0.000012 0.132777 -0.057093 66.730600 40.985400 -0.000006 -0.000013 -6.189720 3.161750 -48.246000 11.754300 -0.000000 0.000003 0.002290 0.060185 -14.135600 -2.192510 6.469440 -0.000001 -171.089000 -0.035360 169.095000 -39.081100 -0.002282 -0.040193 0.004589 -0.002237 29.915000 -40.985400 0.000008 0.000006 0.386595 -2.334060 -73.038900 -11.754300 -0.000006 -0.000006 -0.010208 0.272850 -5.487770
0.000000 0.000000 0.000000 0.000000 0.000000 -0.000000 -1.845180 91.807300 8.179140 88.673900 0.384822 1.789500 15.735700 0.000005 -0.000001 88.532300 88.027400 -87.446600 8.984550 -0.406207 -0.000000 -3.819240 -0.210703 2.165220 16.377300 -0.000001 -0.000001 3.990640 1.775510 -1.417700 6.456720 -0.000001 -0.000000 9.628250 2.046170 1.840990 12.994200 -0.242716 4.980390 -92.330700 6.697040 -70.760400 5.348090 -0.000007 -0.000001 -65.626800 -13.997000 13.055400 24.328600 0.000019 0.000005 13.266800 28.044900 -26.632800 22.291600 -0.000001 0.000005 41.585300 4.530440 16.093700 12.994500 -0.242716 -4.980390 88.834100 3.449880 -71.314500 -5.348130 -0.000001 -0.000004 -72.299300 11.925100 -1.788650 -24.328900 0.000322 -0.000009 -0.615972 -0.888630 -34.676800 -22.291500 -0.000108 -0.000004 42.645600 5.448310 -4.579270 -2.192480 -6.469440 -0.000000 -177.060000 -0.726819 -24.379300 39.081100 -0.000007 -0.000012 0.069114 -0.038040 61.168600 40.985400 -0.000006 -0.000013 -4.492400 -2.966720 -53.817500 11.754300 -0.000000 0.000003 0.002479 0.079005 -13.372600 -2.192510 6.469440 -0.000001 -173.121000 -0.502890 173.374000 -39.081100 -0.002282 -0.040193 0.003416 -0.000220 25.642700 -40.985400 0.000008 0.000006 0.120992 -2.205520 -72.936600 -11.754300 -0.000006 -0.000006 -0.009769 0.269574 -5.621790
